<svg xmlns="http://www.w3.org/2000/svg" viewBox="0 0 512 512">
  <defs>
    <linearGradient id="bg" x1="0" y1="0" x2="1" y2="1">
      <stop offset="0%" stop-color="#7c5ef6"/>
      <stop offset="100%" stop-color="#5b3fd8"/>
    </linearGradient>
  </defs>
  <rect width="512" height="512" rx="110" fill="url(#bg)"/>
  <path d="M256 80c-56 0-90 26-90 64v38h90v13H140c-26 0-46 20-46 46v64c0 26 20 46 46 46h26v-45c0-26 20-46 46-46h64c26 0 46-20 46-46V144c0-26-20-46-46-46h-20zm-38 40a15 15 0 110-30 15 15 0 010 30z" fill="white"/>
  <path d="M256 432c56 0 90-26 90-64v-38H256v-13h116c26 0 46-20 46-46v-64c0-26-20-46-46-46h-26v45c0 26-20 46-46 46h-64c-26 0-46 20-46 46v44c0 26 20 46 46 46h20zm38-40a15 15 0 110 30 15 15 0 010-30z" fill="#ffd43b"/>
</svg>
